<svg xmlns="http://www.w3.org/2000/svg" width="140" height="170" viewBox="0 0 140 170"><g transform="translate(240.202 1.411)"><path d="M110.571,58.133a2.661,2.661,0,0,0-2.032-.94h-7.992c.278-.359.548-.725.806-1.1A25.383,25.383,0,0,0,94.82,20.8a2.67,2.67,0,0,0-3.707.688l-3.471,5.047a65.8,65.8,0,0,0-.238-9.224,9.239,9.239,0,0,0-15.115-6.67c-1.265.952-2.63,2.055-4.035,3.292A65.861,65.861,0,0,0,64.12,5.1,9.5,9.5,0,0,0,55.861,0h0A9.5,9.5,0,0,0,47.6,5.1a65.74,65.74,0,0,0-4.133,8.831c-1.405-1.237-2.771-2.34-4.035-3.292a9.238,9.238,0,0,0-15.115,6.669,66.069,66.069,0,0,0-.238,9.226L20.6,21.485a2.673,2.673,0,0,0-1.713-1.111A2.631,2.631,0,0,0,16.9,20.8a25.411,25.411,0,0,0-6.53,35.294c.258.374.528.738.8,1.1H3.088a2.669,2.669,0,0,0-2.633,3.1l12.624,77.036c0,.085,0,.169.011.253L15.9,156.245a2.668,2.668,0,0,0,2.638,2.269H93.093a2.666,2.666,0,0,0,2.638-2.269l2.807-18.666c.012-.084.006-.168.011-.253L111.173,60.29a2.679,2.679,0,0,0-.6-2.157ZM93.9,26.85a20.069,20.069,0,0,1,.018,29.715,2.666,2.666,0,0,0-.5.629H73.03ZM75.5,14.9a3.928,3.928,0,0,1,6.6,2.914A54.23,54.23,0,0,1,80.931,36.1c-.02.079-.023.157-.035.236L66.854,56.76a2.664,2.664,0,0,0-.236.433H61.151A57.236,57.236,0,0,0,58.688,36c.236-.619.484-1.239.755-1.854C63.354,25.278,70.331,18.785,75.5,14.9ZM52.248,7.708a4.2,4.2,0,0,1,3.61-2.376h0a4.192,4.192,0,0,1,3.605,2.376A59.3,59.3,0,0,1,64.037,18a51.7,51.7,0,0,0-8.179,11.333A51.792,51.792,0,0,0,47.68,18,59.226,59.226,0,0,1,52.248,7.708Zm-22.626,10.1a3.927,3.927,0,0,1,6.6-2.911c5.165,3.883,12.14,10.373,16.054,19.244,3.559,8.066,3.958,16.675,3.532,23.047H45.1a2.574,2.574,0,0,0-.238-.435L30.877,36.419a53.878,53.878,0,0,1-1.256-18.606ZM17.135,55.927a20.075,20.075,0,0,1,.687-29.077L38.689,57.193H17.837a2.633,2.633,0,0,0-.7-1.266ZM90.8,153.182H20.831l-2-13.332H92.8Zm2.838-18.856H17.993L6.225,62.525H105.4Zm0,0" transform="translate(-225.622 4.589)" fill="#6bbf59"/><rect width="140" height="170" transform="translate(-240.202 -1.411)" fill="none"/></g></svg>