<svg xmlns="http://www.w3.org/2000/svg" width="140" height="170" viewBox="0 0 140 170"><g transform="translate(-621 -612)"><rect width="140" height="170" transform="translate(621 612)" fill="none"/><path d="M72.187,26.712h-5.88a3.579,3.579,0,1,0,0,7.157h5.88v9.713h-5.88a3.579,3.579,0,0,0,0,7.157h5.88V75.791H61.324V64.032a13.548,13.548,0,1,0-27.1,0V68.89H30.9a3.579,3.579,0,1,0,0,7.157h3.323V85.76H30.9a3.579,3.579,0,1,0,0,7.157h4.029a24.238,24.238,0,0,0,23.492,18.4H67.97v37.065a5.113,5.113,0,0,0,5.113,5.113h33.742a5.113,5.113,0,0,0,5.113-5.113V94.452h9.245a24.541,24.541,0,0,0,23.73-18.4H149a3.579,3.579,0,1,0,0-7.157h-3.323V59.177H149a3.579,3.579,0,1,0,0-7.157h-3.323V47.163a13.548,13.548,0,1,0-27.1,0V58.921H107.719V33.87h6.391a3.579,3.579,0,1,0,0-7.157h-6.391a20.28,20.28,0,0,0-2.121-9.049l3.673-3.673a3.579,3.579,0,1,0-5.061-5.061l-3.23,3.23a17.7,17.7,0,0,0-7.447-3.489V3.579a3.579,3.579,0,1,0-7.157,0V8.67a17.694,17.694,0,0,0-7.447,3.489L75.7,8.929a3.579,3.579,0,0,0-5.061,5.061l3.673,3.673A20.27,20.27,0,0,0,72.187,26.712Zm63.267,43.243a14.288,14.288,0,0,1-14.272,14.272H106.824a5.113,5.113,0,0,0-5.113,5.113v53.936H78.195V106.211a5.113,5.113,0,0,0-5.113-5.113H58.427A13.99,13.99,0,0,1,44.453,87.124V64.034a3.323,3.323,0,1,1,6.647,0V80.9a5.113,5.113,0,0,0,5.113,5.113H77.3A5.113,5.113,0,0,0,82.413,80.9V26.073a7.541,7.541,0,1,1,15.081,0v37.96a5.113,5.113,0,0,0,5.113,5.113H123.7a5.113,5.113,0,0,0,5.113-5.113V47.162a3.323,3.323,0,0,1,6.647,0V69.955Z" transform="translate(600.674 620)" fill="#6bbf59"/></g></svg>