<svg xmlns="http://www.w3.org/2000/svg" width="58" height="58" viewBox="0 0 58 58">
  <g id="facebook" transform="translate(-668 -1942)">
    <g id="Path_7" data-name="Path 7" transform="translate(668 1942)" fill="none">
      <path d="M0,0H58V58H0Z" stroke="none"/>
      <path d="M 3 3 L 3 55 L 55 55 L 55 3 L 3 3 M 0 0 L 58 0 L 58 58 L 0 58 L 0 0 Z" stroke="none" fill="#6bbf59"/>
    </g>
    <path id="facebook-2" data-name="facebook" d="M21.833,6.356h3.494V.27A45.122,45.122,0,0,0,20.236,0c-5.038,0-8.49,3.169-8.49,8.993v5.36H6.187v6.8h5.56V38.277h6.816V21.159H23.9l.847-6.8H18.562V9.668c0-1.966.531-3.313,3.271-3.313Z" transform="translate(680.813 1952.173)" fill="#6bbf59"/>
  </g>
</svg>
