<svg xmlns="http://www.w3.org/2000/svg" width="58" height="58" viewBox="0 0 58 58">
  <g id="istagram" transform="translate(-746 -1942)">
    <g id="Path_8" data-name="Path 8" transform="translate(746 1942)" fill="none">
      <path d="M0,0H58V58H0Z" stroke="none"/>
      <path d="M 3 3 L 3 55 L 55 55 L 55 3 L 3 3 M 0 0 L 58 0 L 58 58 L 0 58 L 0 0 Z" stroke="none" fill="#6bbf59"/>
    </g>
    <g id="instagram_1_" data-name="instagram (1)" transform="translate(755.55 1952.172)">
      <path id="Path_10" data-name="Path 10" d="M15.571,5.838A9.725,9.725,0,1,0,25.3,15.563a9.724,9.724,0,0,0-9.725-9.725Zm0,16.038a6.312,6.312,0,1,1,6.312-6.312A6.31,6.31,0,0,1,15.571,21.876Z" transform="translate(3.139 4.005)" fill="#6bbf59"/>
      <path id="Path_11" data-name="Path 11" d="M27.03.121c-3.521-.164-12.244-.156-15.768,0-3.1.145-5.829.893-8.032,3.1C-.451,6.9.019,11.857.019,19.132c0,7.445-.415,12.29,3.21,15.915,3.7,3.694,8.727,3.21,15.915,3.21,7.375,0,9.92,0,12.528-1,3.545-1.376,6.222-4.545,6.483-10.237.166-3.523.156-12.244,0-15.768C37.84,4.527,34.234.453,27.03.121ZM32.6,32.611c-2.413,2.413-5.761,2.2-13.505,2.2-7.974,0-11.172.118-13.505-2.222-2.687-2.675-2.2-6.97-2.2-13.481,0-8.812-.9-15.158,7.939-15.61,2.032-.072,2.63-.1,7.745-.1l.072.048c8.5,0,15.167-.89,15.567,7.952.091,2.017.112,2.624.112,7.73C34.825,27.012,34.975,30.229,32.6,32.611Z" transform="translate(0 0)" fill="#6bbf59"/>
      <circle id="Ellipse_2" data-name="Ellipse 2" cx="1.939" cy="1.939" r="1.939" transform="translate(27.435 5.965)" fill="#6bbf59"/>
    </g>
  </g>
</svg>
