<svg xmlns="http://www.w3.org/2000/svg" width="140" height="170" viewBox="0 0 140 170">
  <g id="orquidea" transform="translate(-316 -612)">
    <path id="orquidea-2" data-name="orquidea" d="M170.693,38.055a10.811,10.811,0,0,0-6.441-7.8,8.042,8.042,0,0,0-6.607.172,7.574,7.574,0,0,0-3.356,3.32h-.064a32.333,32.333,0,0,0-12.444,2.5c1.958-2.33,3.973-4.594,6.261-7.018,2.788-2.956,5.91-5.995,9.14-8.88a7.554,7.554,0,0,0,4.245,1.1,8.041,8.041,0,0,0,5.871-3.035,10.811,10.811,0,0,0,1.882-9.94,2.2,2.2,0,0,0-1.112-1.325,10.808,10.808,0,0,0-10.115.131,8.042,8.042,0,0,0-4.006,5.257A7.552,7.552,0,0,0,154.331,17a162.178,162.178,0,0,0-24.068,26.951c-2.53-5.857-6.289-10.694-10.786-13.612a2.2,2.2,0,0,0-2.392,0,27.528,27.528,0,0,0-8.1,8.494,40.267,40.267,0,0,0-18.159-12.5c3.432-3.328,5.6-7.512,5.8-11.4a2.2,2.2,0,0,0-1.2-2.071c-3.867-1.973-9.262-2.019-14.335-.176C80.152,7.368,77.413,2.719,73.771.356a2.2,2.2,0,0,0-2.393,0C67.738,2.719,65,7.366,64.058,12.682c-5.074-1.842-10.469-1.8-14.335.177a2.2,2.2,0,0,0-1.2,2.071c.225,4.335,2.881,9.031,7.015,12.5-4.133,3.472-6.789,8.168-7.015,12.5a2.2,2.2,0,0,0,1.2,2.071c4.054,2.069,9.789,2.02,15.072-.1A5.105,5.105,0,0,0,65.944,46,6.73,6.73,0,0,0,71.05,48.41a6.437,6.437,0,0,0,1.525-.185,6.442,6.442,0,0,0,1.526.185A6.733,6.733,0,0,0,79.207,46a5.1,5.1,0,0,0,1.149-4.1c5.285,2.124,11.019,2.173,15.072.1a2.2,2.2,0,0,0,1.2-2.071,15.717,15.717,0,0,0-2.6-7.5c5.2,2.626,9.923,6.531,12.641,10.688A42.451,42.451,0,0,0,103.4,53.888c-.105.636-.294,2.086-.3,2.167-.076-.033-1.585-.658-2.269-.911-9.6-3.549-19.776-3.52-27,.165a2.2,2.2,0,0,0-1.2,2.071c.45,8.673,6.229,18.184,15.083,24.823l.2.148-.2.148c-8.854,6.639-14.633,16.151-15.083,24.825a2.2,2.2,0,0,0,1.2,2.071c6.93,3.536,16.58,3.7,25.83.576A205.362,205.362,0,0,0,95.3,138.191c-5.424-9.656-14.126-16.345-23.676-18.079-7.571-1.374-14.693.333-20.055,4.809a23.3,23.3,0,0,0-8.142,18.31A30.552,30.552,0,0,0,46,155.349a2.2,2.2,0,0,0,4.037,0c3.91-9.09,12.385-16.043,21.59-17.715a19.872,19.872,0,0,1,15.929,3.439,18.608,18.608,0,0,1,7.018,13.556,2.2,2.2,0,0,0,2.182,2.049h.011a2.2,2.2,0,0,0,2.2-2.187v-.069q0-.237,0-.517a201.944,201.944,0,0,1,5.7-45.972q.573-.276,1.133-.568l-.782,3.795a7.988,7.988,0,0,0,1.768,6.738,11.161,11.161,0,0,0,8.47,3.987,10.711,10.711,0,0,0,3.031-.443,10.728,10.728,0,0,0,3.033.443,11.16,11.16,0,0,0,8.468-3.987,7.985,7.985,0,0,0,1.768-6.737l-.782-3.8q1.419.738,2.922,1.381c10.177,4.348,21.3,4.6,29.04.651a2.2,2.2,0,0,0,1.2-2.071c-.449-8.675-6.228-18.188-15.082-24.826l-.2-.148.2-.147c8.853-6.639,14.633-16.15,15.083-24.824a2.2,2.2,0,0,0-1.2-2.071c-7.736-3.948-18.863-3.7-29.04.649l-.225.1c-.009-.081-.769-4.842-1.391-7.022l.206-.3a28.166,28.166,0,0,1,21.355-10.587,7.531,7.531,0,0,0,1.754,3.693,8.043,8.043,0,0,0,6.044,2.674,10.813,10.813,0,0,0,8.926-4.762A2.206,2.206,0,0,0,170.693,38.055ZM158.24,13.476a3.712,3.712,0,0,1,1.888-2.378,6.366,6.366,0,0,1,5.057-.4,6.363,6.363,0,0,1-1.271,4.911,3.709,3.709,0,0,1-2.669,1.447,3.362,3.362,0,0,1-2.459-.987A3.38,3.38,0,0,1,158.24,13.476Zm-90.007,1a15.944,15.944,0,0,1,4.343-9.492,15.943,15.943,0,0,1,4.343,9.5c.008.068.016.135.023.2a17.692,17.692,0,0,0-4.366,3.759,17.676,17.676,0,0,0-4.367-3.76Q68.22,14.582,68.232,14.48ZM65.919,36.43a17.5,17.5,0,0,1-2.39,1.242,15.948,15.948,0,0,1-10.392.985,15.941,15.941,0,0,1,6.05-8.508l.163-.121a16.95,16.95,0,0,0,6.428,2.028,8.361,8.361,0,0,0,.763,1.353Zm-.855-8.92a14.342,14.342,0,0,1-4.576-1.9c-.038-.025-.076-.049-.115-.072q-.6-.379-1.187-.819a15.944,15.944,0,0,1-6.049-8.507,15.939,15.939,0,0,1,10.392.985q.686.293,1.327.632l.069.037a14.207,14.207,0,0,1,4.153,3.249A8.309,8.309,0,0,0,65.064,27.51ZM75.8,43.226a2.331,2.331,0,0,1-1.7.789,2.2,2.2,0,0,1-.76-.144,4.3,4.3,0,0,0-1.53,0,2.211,2.211,0,0,1-.76.144,2.331,2.331,0,0,1-1.7-.788.719.719,0,0,1-.215-.637l.9-4.369.007-.034,1.01-4.9a2.2,2.2,0,0,0-.551-1.949,4.263,4.263,0,0,1-1.091-2.907c0-2.083,1.358-3.785,3.05-3.858h.225c1.692.073,3.05,1.775,3.05,3.858a4.269,4.269,0,0,1-1.091,2.908,2.2,2.2,0,0,0-.55,1.948l1,4.873c.006.03.012.061.019.091l.895,4.341A.717.717,0,0,1,75.8,43.226Zm.275-22.113A15.036,15.036,0,0,1,81.624,17.2a15.931,15.931,0,0,1,10.391-.985,15.94,15.94,0,0,1-6.049,8.507c-.356.267-1.265.866-1.3.891a14.318,14.318,0,0,1-4.576,1.9A8.305,8.305,0,0,0,76.074,21.113Zm5.548,16.559a17.468,17.468,0,0,1-2.39-1.242l-.623-3.022a8.338,8.338,0,0,0,.762-1.352A16.939,16.939,0,0,0,85.8,30.028l.164.122a15.936,15.936,0,0,1,6.049,8.507A15.945,15.945,0,0,1,81.623,37.672ZM70.84,133.309c-8.947,1.625-17.281,7.543-22.36,15.593a25.072,25.072,0,0,1-.657-5.672,18.987,18.987,0,0,1,6.564-14.936,18.786,18.786,0,0,1,12.22-4.249,23.708,23.708,0,0,1,4.234.39c7.1,1.289,13.691,5.81,18.441,12.459A24.41,24.41,0,0,0,70.84,133.309Zm36.651-76.972c1.078-8.945,5.252-17.175,10.79-21.463,5.539,4.288,9.713,12.518,10.791,21.462.073.606.132,1.219.176,1.834a33.254,33.254,0,0,0-9.614,8.1V53.218a1.352,1.352,0,1,0-2.7,0V66.265a33.247,33.247,0,0,0-9.614-8.1C107.36,57.559,107.418,56.946,107.491,56.337ZM77.164,58.613c6.481-2.655,15.7-2.155,23.982,1.386,5.941,2.539,10.8,6.407,13.518,10.663a12.934,12.934,0,0,0-6.495,4.887L93.932,66.617a1.353,1.353,0,0,0-1.437,2.291L106.818,77.9a15.4,15.4,0,0,0-1.392,6.436q0,.338.014.674A28.939,28.939,0,0,1,93,80.5l-.031-.019c-.881-.552-1.753-1.15-2.608-1.792C83.147,73.281,78.107,65.552,77.164,58.613Zm29.825,42.954a36.39,36.39,0,0,1-5.843,3.136c-8.286,3.54-17.5,4.04-23.982,1.387.943-6.94,5.983-14.67,13.193-20.076.491-.368.995-.727,1.506-1.074a31.972,31.972,0,0,0,14.414,4.518q.2.573.443,1.125L92.547,98.605a1.352,1.352,0,1,0,1.332,2.354l14.16-8.015c.181.263.368.522.567.772Zm19.386,13.554a6.757,6.757,0,0,1-5.063,2.368,6.406,6.406,0,0,1-1.679-.234V101.616a1.352,1.352,0,1,0-2.7,0v15.638a6.409,6.409,0,0,1-1.68.234,6.756,6.756,0,0,1-5.062-2.368,3.672,3.672,0,0,1-.871-3.075l3.812-18.5a2.2,2.2,0,0,0-.551-1.949,10.666,10.666,0,0,1-2.758-7.266c0-5.322,3.646-9.672,8.184-9.842.046-.006.5,0,.553,0,4.538.17,8.184,4.52,8.184,9.842a10.67,10.67,0,0,1-2.758,7.267,2.2,2.2,0,0,0-.551,1.948l3.812,18.5A3.672,3.672,0,0,1,126.375,115.121Zm33.023-9.03c-6.48,2.653-15.7,2.152-23.982-1.388a36.455,36.455,0,0,1-5.843-3.135l-1.617-7.85q.345-.436.654-.9l14.382,8.14a1.352,1.352,0,1,0,1.332-2.354L129.9,90.444c.138-.323.268-.65.383-.983A31.985,31.985,0,0,0,144.7,84.942c.509.345,1.013.7,1.5,1.073C153.416,91.42,158.456,99.151,159.4,106.091ZM135.417,60c8.286-3.541,17.5-4.04,23.982-1.386-.943,6.939-5.983,14.67-13.193,20.075q-1.27.952-2.58,1.774l-.086.053A28.9,28.9,0,0,1,131.123,85q.014-.335.014-.674a15.391,15.391,0,0,0-1.469-6.6l14.057-8.82a1.353,1.353,0,1,0-1.437-2.291l-14,8.784a12.907,12.907,0,0,0-6.388-4.739C124.614,66.407,129.475,62.538,135.417,60Zm26.156-19.88H161.5a3.712,3.712,0,0,1-2.8-1.173,3.38,3.38,0,0,1-.772-2.536,3.379,3.379,0,0,1,1.679-2.05,3.712,3.712,0,0,1,3.037-.019,6.363,6.363,0,0,1,3.481,3.69A6.38,6.38,0,0,1,161.573,40.12Z" transform="translate(278.571 618.998)" fill="#6bbf59"/>
    <rect id="Rectangle_26" data-name="Rectangle 26" width="140" height="170" transform="translate(316 612)" fill="none"/>
  </g>
</svg>
