<svg xmlns="http://www.w3.org/2000/svg" width="58" height="58" viewBox="0 0 58 58">
  <g id="twitter" transform="translate(-590 -1942)">
    <g id="Path_6" data-name="Path 6" transform="translate(590 1942)" fill="none">
      <path d="M0,0H58V58H0Z" stroke="none"/>
      <path d="M 3 3 L 3 55 L 55 55 L 55 3 L 3 3 M 0 0 L 58 0 L 58 58 L 0 58 L 0 0 Z" stroke="none" fill="#6bbf59"/>
    </g>
    <g id="twitter-2" data-name="twitter" transform="translate(598 1905.5)">
      <g id="Group_1" data-name="Group 1" transform="translate(0 48)">
        <path id="Path_9" data-name="Path 9" d="M43.106,52.146a18.425,18.425,0,0,1-5.092,1.4A8.788,8.788,0,0,0,41.9,48.657,17.661,17.661,0,0,1,36.3,50.8a8.837,8.837,0,0,0-15.287,6.043,9.1,9.1,0,0,0,.2,2.015A25.014,25.014,0,0,1,3,49.611,8.84,8.84,0,0,0,5.717,61.422a8.727,8.727,0,0,1-3.993-1.088v.1A8.878,8.878,0,0,0,8.8,69.114a8.82,8.82,0,0,1-2.317.291,7.813,7.813,0,0,1-1.673-.151,8.921,8.921,0,0,0,8.258,6.156A17.757,17.757,0,0,1,2.115,79.179,16.551,16.551,0,0,1,0,79.058a24.879,24.879,0,0,0,13.557,3.966c16.262,0,25.153-13.471,25.153-25.147,0-.391-.013-.768-.032-1.142A17.63,17.63,0,0,0,43.106,52.146Z" transform="translate(0 -48)" fill="#6bbf59"/>
      </g>
    </g>
  </g>
</svg>
